<svg width="80" height="14" viewBox="0 0 80 14" fill="none" xmlns="http://www.w3.org/2000/svg">
<path d="M0.242188 8.67969C0.242188 10.8359 1.75 12.2344 4.05469 12.2344C6.46875 12.2344 7.90625 10.8672 7.90625 8.46875V0.726562H5.54688V8.45312C5.54688 9.58594 5.01562 10.1953 4.03125 10.1953C3.14062 10.1953 2.54688 9.59375 2.53125 8.67969H0.242188ZM30.7547 12C33.1609 12 34.6531 10.7578 34.6531 8.77344C34.6531 7.28125 33.5281 6.16406 31.9969 6.04688V5.98438C33.1922 5.80469 34.1141 4.77344 34.1141 3.53906C34.1141 1.8125 32.7859 0.726562 30.6688 0.726562H25.7625V12H30.7547ZM28.1219 2.48438H30.0594C31.1609 2.48438 31.7938 3 31.7938 3.90625C31.7938 4.85938 31.075 5.41406 29.8172 5.41406H28.1219V2.48438ZM28.1219 10.2422V6.96875H30.0984C31.4891 6.96875 32.2469 7.53125 32.2469 8.58594C32.2469 9.66406 31.5125 10.2422 30.1531 10.2422H28.1219ZM36.215 8.78906C36.2853 10.9062 38.0119 12.1953 40.7228 12.1953C43.5197 12.1953 45.2931 10.8125 45.2931 8.625C45.2931 6.90625 44.3088 5.9375 42.0509 5.45312L40.6838 5.16406C39.3869 4.86719 38.84 4.47656 38.84 3.78125C38.84 2.94531 39.6213 2.39062 40.7853 2.39062C41.965 2.39062 42.8009 2.96875 42.8791 3.92188H45.09C45.0509 1.88281 43.4025 0.53125 40.7775 0.53125C38.2619 0.53125 36.465 1.90625 36.465 3.98438C36.465 5.63281 37.4884 6.6875 39.5666 7.13281L41.0353 7.45312C42.3947 7.75781 42.9338 8.16406 42.9338 8.89844C42.9338 9.72656 42.0744 10.3281 40.8166 10.3281C39.5666 10.3281 38.5978 9.71875 38.4884 8.78906H36.215ZM52.4722 12.1953C53.1831 12.1953 53.8394 12.0938 54.4409 11.8828L55.2456 13.0625H57.5347L56.105 10.9062C57.2691 9.94531 57.9019 8.35156 57.9019 6.36719C57.9019 2.78125 55.8081 0.53125 52.4722 0.53125C49.1284 0.53125 47.0347 2.78125 47.0347 6.36719C47.0347 9.98438 49.1284 12.1953 52.4722 12.1953ZM52.4722 10.2422C50.6206 10.2422 49.4409 8.72656 49.4409 6.36719C49.4409 4 50.6206 2.47656 52.4722 2.47656C54.3159 2.47656 55.4956 4 55.4956 6.36719C55.4956 7.45312 55.1987 8.35156 54.6675 8.96094L54.1753 8.28906H52.0425L53.2769 10.1328C53.0269 10.2031 52.7612 10.2422 52.4722 10.2422ZM62.4325 0.726562H60.0731V8.01562C60.0731 10.5 61.9091 12.1953 64.7997 12.1953C67.6825 12.1953 69.5184 10.5 69.5184 8.01562V0.726562H67.1591V7.78125C67.1591 9.22656 66.3075 10.1719 64.7997 10.1719C63.2841 10.1719 62.4325 9.22656 62.4325 7.78125V0.726562ZM79.51 10.0469H74.4006V7.20312H79.2209V5.39062H74.4006V2.67188H79.51V0.726562H72.0413V12H79.51V10.0469Z" fill="#111827"/>
</svg>
